<?xml version="1.0" encoding="UTF-8" standalone="no"?>
<svg
   xmlns:dc="http://purl.org/dc/elements/1.1/"
   xmlns:cc="http://creativecommons.org/ns#"
   xmlns:rdf="http://www.w3.org/1999/02/22-rdf-syntax-ns#"
   xmlns:svg="http://www.w3.org/2000/svg"
   xmlns="http://www.w3.org/2000/svg"
   viewBox="0 0 400 380"
   height="380"
   width="400"
   xml:space="preserve"
   id="svg2"
   version="1.1"><metadata
     id="metadata8"><rdf:RDF><cc:Work
         rdf:about=""><dc:format>image/svg+xml</dc:format><dc:type
           rdf:resource="http://purl.org/dc/dcmitype/StillImage" /></cc:Work></rdf:RDF></metadata><defs
     id="defs6"><radialGradient
       id="radialGradient18"
       spreadMethod="pad"
       gradientTransform="matrix(157.395,0,0,-157.327,144.888,36.517)"
       gradientUnits="userSpaceOnUse"
       r="1"
       cy="0"
       cx="0"
       fy="0"
       fx="0"><stop
         id="stop12"
         offset="0"
         style="stop-opacity:1;stop-color:#a6a8ab" /><stop
         id="stop14"
         offset="0.597"
         style="stop-opacity:1;stop-color:#6d6e70" /><stop
         id="stop16"
         offset="1"
         style="stop-opacity:1;stop-color:#404041" /></radialGradient><radialGradient
       id="radialGradient28"
       spreadMethod="pad"
       gradientTransform="matrix(157.395,0,0,-157.327,143.651,35.278)"
       gradientUnits="userSpaceOnUse"
       r="1"
       cy="0"
       cx="0"
       fy="0"
       fx="0"><stop
         id="stop22"
         offset="0"
         style="stop-opacity:1;stop-color:#a6a8ab" /><stop
         id="stop24"
         offset="0.597"
         style="stop-opacity:1;stop-color:#6d6e70" /><stop
         id="stop26"
         offset="1"
         style="stop-opacity:1;stop-color:#404041" /></radialGradient><radialGradient
       id="radialGradient38"
       spreadMethod="pad"
       gradientTransform="matrix(157.396,0,0,-157.328,144.89,36.515)"
       gradientUnits="userSpaceOnUse"
       r="1"
       cy="0"
       cx="0"
       fy="0"
       fx="0"><stop
         id="stop32"
         offset="0"
         style="stop-opacity:1;stop-color:#a6a8ab" /><stop
         id="stop34"
         offset="0.597"
         style="stop-opacity:1;stop-color:#6d6e70" /><stop
         id="stop36"
         offset="1"
         style="stop-opacity:1;stop-color:#404041" /></radialGradient><radialGradient
       id="radialGradient48"
       spreadMethod="pad"
       gradientTransform="matrix(157.4,0,0,-157.332,144.89,36.516)"
       gradientUnits="userSpaceOnUse"
       r="1"
       cy="0"
       cx="0"
       fy="0"
       fx="0"><stop
         id="stop42"
         offset="0"
         style="stop-opacity:1;stop-color:#a6a8ab" /><stop
         id="stop44"
         offset="0.597"
         style="stop-opacity:1;stop-color:#6d6e70" /><stop
         id="stop46"
         offset="1"
         style="stop-opacity:1;stop-color:#404041" /></radialGradient><radialGradient
       id="radialGradient58"
       spreadMethod="pad"
       gradientTransform="matrix(122.181,0,0,-122.128,139.622,228.331)"
       gradientUnits="userSpaceOnUse"
       r="1"
       cy="0"
       cx="0"
       fy="0"
       fx="0"><stop
         id="stop52"
         offset="0"
         style="stop-opacity:1;stop-color:#0082c9" /><stop
         id="stop54"
         offset="0.591"
         style="stop-opacity:1;stop-color:#0054a5" /><stop
         id="stop56"
         offset="1"
         style="stop-opacity:1;stop-color:#262261" /></radialGradient><radialGradient
       id="radialGradient68"
       spreadMethod="pad"
       gradientTransform="matrix(122.181,0,0,-122.128,139.624,228.329)"
       gradientUnits="userSpaceOnUse"
       r="1"
       cy="0"
       cx="0"
       fy="0"
       fx="0"><stop
         id="stop62"
         offset="0"
         style="stop-opacity:1;stop-color:#0082c9" /><stop
         id="stop64"
         offset="0.591"
         style="stop-opacity:1;stop-color:#0054a5" /><stop
         id="stop66"
         offset="1"
         style="stop-opacity:1;stop-color:#262261" /></radialGradient><radialGradient
       id="radialGradient78"
       spreadMethod="pad"
       gradientTransform="matrix(113.6,0,0,-113.551,144.89,159.125)"
       gradientUnits="userSpaceOnUse"
       r="1"
       cy="0"
       cx="0"
       fy="0"
       fx="0"><stop
         id="stop72"
         offset="0"
         style="stop-opacity:1;stop-color:#a6a8ab" /><stop
         id="stop74"
         offset="0.575"
         style="stop-opacity:1;stop-color:#6d6e70" /><stop
         id="stop76"
         offset="1"
         style="stop-opacity:1;stop-color:#404041" /></radialGradient><radialGradient
       id="radialGradient88"
       spreadMethod="pad"
       gradientTransform="matrix(113.602,0,0,-113.553,144.89,159.126)"
       gradientUnits="userSpaceOnUse"
       r="1"
       cy="0"
       cx="0"
       fy="0"
       fx="0"><stop
         id="stop82"
         offset="0"
         style="stop-opacity:1;stop-color:#a6a8ab" /><stop
         id="stop84"
         offset="0.575"
         style="stop-opacity:1;stop-color:#6d6e70" /><stop
         id="stop86"
         offset="1"
         style="stop-opacity:1;stop-color:#404041" /></radialGradient><radialGradient
       id="radialGradient98"
       spreadMethod="pad"
       gradientTransform="matrix(113.601,0,0,-113.552,144.891,159.126)"
       gradientUnits="userSpaceOnUse"
       r="1"
       cy="0"
       cx="0"
       fy="0"
       fx="0"><stop
         id="stop92"
         offset="0"
         style="stop-opacity:1;stop-color:#a6a8ab" /><stop
         id="stop94"
         offset="0.575"
         style="stop-opacity:1;stop-color:#6d6e70" /><stop
         id="stop96"
         offset="1"
         style="stop-opacity:1;stop-color:#404041" /></radialGradient><radialGradient
       id="radialGradient108"
       spreadMethod="pad"
       gradientTransform="matrix(113.6,0,0,-113.55,144.889,159.123)"
       gradientUnits="userSpaceOnUse"
       r="1"
       cy="0"
       cx="0"
       fy="0"
       fx="0"><stop
         id="stop102"
         offset="0"
         style="stop-opacity:1;stop-color:#a6a8ab" /><stop
         id="stop104"
         offset="0.575"
         style="stop-opacity:1;stop-color:#6d6e70" /><stop
         id="stop106"
         offset="1"
         style="stop-opacity:1;stop-color:#404041" /></radialGradient><radialGradient
       id="radialGradient118"
       spreadMethod="pad"
       gradientTransform="matrix(140.776,0,0,-140.715,178.753,223.066)"
       gradientUnits="userSpaceOnUse"
       r="1"
       cy="0"
       cx="0"
       fy="0"
       fx="0"><stop
         id="stop112"
         offset="0"
         style="stop-opacity:1;stop-color:#0082c9" /><stop
         id="stop114"
         offset="0.591"
         style="stop-opacity:1;stop-color:#0054a5" /><stop
         id="stop116"
         offset="1"
         style="stop-opacity:1;stop-color:#262261" /></radialGradient><radialGradient
       id="radialGradient128"
       spreadMethod="pad"
       gradientTransform="matrix(140.775,0,0,-140.713,178.754,223.065)"
       gradientUnits="userSpaceOnUse"
       r="1"
       cy="0"
       cx="0"
       fy="0"
       fx="0"><stop
         id="stop122"
         offset="0"
         style="stop-opacity:1;stop-color:#0082c9" /><stop
         id="stop124"
         offset="0.591"
         style="stop-opacity:1;stop-color:#0054a5" /><stop
         id="stop126"
         offset="1"
         style="stop-opacity:1;stop-color:#262261" /></radialGradient></defs><g
     transform="matrix(1.3333333,0,0,-1.3333333,0,380)"
     id="g10"><path
       id="path20"
       style="fill:url(#radialGradient18);fill-opacity:1;fill-rule:nonzero;stroke:none"
       d="m 212.86,224.36 c -1.74,-5.06 -3.72,-9.92 -5.95,-14.57 L 147.9,243.85 56.54,191.13 V 85.68 L 77.21,73.73 v 33.29 c 0.4,-0.03 0.8,-0.05 1.22,-0.05 8.87,-0.2 18.3,0.41 28.03,1.87 V 38.87 L 40.94,76.68 v 123.44 l 106.96,61.74 z" /><path
       id="path30"
       style="fill:url(#radialGradient28);fill-opacity:1;fill-rule:nonzero;stroke:none"
       d="M 253.62,198.88 V 75.44 L 188.1,37.63 v 105.36 c 10.43,8.16 20.33,17.78 29.25,29.09 V 72.49 l 20.67,11.95 v 105.45 l -6.16,3.55 c 2.57,4.39 5,8.99 7.28,13.79 z" /><path
       id="path40"
       style="fill:url(#radialGradient38);fill-opacity:1;fill-rule:nonzero;stroke:none"
       d="M 143.83,118.66 V 17.28 l -29.25,16.89 v 76.09 c 9.63,1.9 19.45,4.68 29.25,8.4 z" /><path
       id="path50"
       style="fill:url(#radialGradient48);fill-opacity:1;fill-rule:nonzero;stroke:none"
       d="M 181.22,138.28 V 34.17 L 151.97,17.28 V 122 c 9.95,4.36 19.79,9.75 29.25,16.28 z" /><path
       id="path60"
       style="fill:url(#radialGradient58);fill-opacity:1;fill-rule:nonzero;stroke:none"
       d="M 240.44,221.89 C 199.49,120.6 100.79,107.03 63.01,113.74 c 59.1,2.12 135.56,38.8 157.27,116.47 l -10.89,3.27 28.95,20.06 10.5,-35.07 z" /><path
       id="path70"
       style="fill:url(#radialGradient68);fill-opacity:1;fill-rule:nonzero;stroke:none"
       d="M 175.29,203 C 158.87,132.92 95.25,117.15 63.01,120.5 c 34.02,2.66 87.33,27.95 96.58,86.28 l -7.62,1.69 19.09,17.18 10.16,-24.09 z" /><path
       id="path80"
       style="fill:url(#radialGradient78);fill-opacity:1;fill-rule:nonzero;stroke:none"
       d="M 79.47,80.99 V 69.83 L 54.28,84.37 v 7.85 c -3.8,2.14 -7.49,4.45 -11.08,6.91 V 77.98 l 61.01,-35.2 v 32.3 c -8.5,1.23 -16.76,3.23 -24.74,5.91 z" /><path
       id="path90"
       style="fill:url(#radialGradient88);fill-opacity:1;fill-rule:nonzero;stroke:none"
       d="M 241.52,133.69 V 84.37 L 216.33,69.83 v 37.13 C 208.69,100.64 200.39,95.11 191.6,90.43 V 42.78 l 61,35.2 v 73.29 c -3.29,-6.14 -6.98,-12 -11.08,-17.58 z" /><path
       id="path100"
       style="fill:url(#radialGradient98);fill-opacity:1;fill-rule:nonzero;stroke:none"
       d="m 124.57,73.57 c -2.59,0.01 -5.17,0.08 -7.73,0.22 V 35.47 l 24.73,-14.28 v 53.45 c -5.59,-0.68 -11.25,-1.07 -17,-1.07 z" /><path
       id="path110"
       style="fill:url(#radialGradient108);fill-opacity:1;fill-rule:nonzero;stroke:none"
       d="M 154.23,76.73 V 21.19 l 24.73,14.28 v 48.99 c -7.93,-3.29 -16.2,-5.9 -24.73,-7.73 z" /><path
       id="path120"
       style="fill:url(#radialGradient118);fill-opacity:1;fill-rule:nonzero;stroke:none"
       d="m 91.93,114.99 c 54.54,11.17 112.04,48.48 130.52,114.61 l 0.6,2.13 -8.52,2.56 22.54,15.63 8.26,-27.59 -6.14,2.5 -0.85,-2.1 C 201.97,132.75 123.71,117.42 91.93,114.99 Z" /><path
       id="path130"
       style="fill:url(#radialGradient128);fill-opacity:1;fill-rule:nonzero;stroke:none"
       d="m 89.16,123.82 c 31.09,10.63 65.34,36.47 72.66,82.6 l 0.33,2.1 -5.42,1.2 13.48,12.13 7.19,-17.04 -3.79,0.92 -0.51,-2.21 c -11.95,-50.96 -49.53,-73.96 -83.94,-79.7 z" /></g></svg>